<svg viewBox="0 0 1024 1024" xmlns="http://www.w3.org/2000/svg"><path d="m888 792h-688v-624c0-4.4-3.6-8-8-8h-56c-4.4 0-8 3.6-8 8v688c0 4.4 3.6 8 8 8h752c4.4 0 8-3.6 8-8v-56c0-4.4-3.6-8-8-8zm-600-80h56c4.4 0 8-3.6 8-8v-144c0-4.4-3.6-8-8-8h-56c-4.4 0-8 3.6-8 8v144c0 4.4 3.6 8 8 8zm152 0h56c4.4 0 8-3.6 8-8v-320c0-4.4-3.6-8-8-8h-56c-4.4 0-8 3.6-8 8v320c0 4.4 3.6 8 8 8zm152 0h56c4.4 0 8-3.6 8-8v-242c0-4.4-3.6-8-8-8h-56c-4.4 0-8 3.6-8 8v242c0 4.4 3.6 8 8 8zm152 0h56c4.4 0 8-3.6 8-8v-400c0-4.4-3.6-8-8-8h-56c-4.4 0-8 3.6-8 8v400c0 4.4 3.6 8 8 8z"/></svg>